<?xml version="1.0" standalone="no"?>
<!DOCTYPE svg PUBLIC "-//W3C//DTD SVG 20010904//EN"
 "http://www.w3.org/TR/2001/REC-SVG-20010904/DTD/svg10.dtd">
<svg version="1.0" xmlns="http://www.w3.org/2000/svg"
 width="512.000000pt" height="512.000000pt" viewBox="0 0 512.000000 512.000000"
 preserveAspectRatio="xMidYMid meet">
<metadata>
Created by potrace 1.16, written by Peter Selinger 2001-2019
</metadata>
<g transform="translate(0.000000,512.000000) scale(0.100000,-0.101186)"
fill="#1f85c7" stroke="none">
<path d="M2260 4936 c-3 -3 -64 -10 -135 -16 -202 -17 -408 -46 -555 -79 -25
-6 -65 -15 -90 -20 -117 -26 -239 -58 -330 -86 -168 -54 -237 -77 -252 -85
-10 -6 -24 -10 -32 -10 -24 0 -29 -18 -42 -169 -17 -194 -17 -421 1 -616 21
-227 37 -330 76 -505 25 -112 31 -137 39 -160 4 -14 13 -45 20 -70 27 -93 80
-250 120 -350 61 -155 215 -463 270 -540 11 -16 20 -31 20 -34 0 -11 118 -184
185 -271 136 -180 186 -237 344 -396 189 -189 321 -302 486 -417 203 -141 179
-133 256 -82 97 65 329 241 329 249 0 4 -12 14 -27 22 -16 7 -47 26 -70 41
-23 15 -45 28 -48 28 -13 0 -213 141 -320 226 -141 112 -407 378 -519 519 -75
95 -256 355 -256 369 0 2 -17 33 -38 67 -55 92 -156 304 -191 399 -17 47 -31
81 -42 102 -5 10 -9 27 -9 37 0 11 -4 23 -10 26 -5 3 -10 17 -10 30 0 13 -4
26 -9 29 -5 3 -11 18 -14 33 -3 16 -11 46 -17 68 -73 255 -114 539 -115 794 0
136 3 165 15 171 16 9 64 22 205 59 49 13 200 46 275 60 143 27 159 29 462 61
124 13 540 13 666 0 194 -20 288 -31 342 -40 115 -19 186 -32 225 -40 96 -22
263 -63 300 -75 22 -6 60 -18 85 -25 25 -7 54 -16 65 -20 11 -4 38 -13 60 -19
22 -7 49 -16 60 -21 11 -4 47 -18 80 -30 33 -12 74 -28 90 -35 71 -31 108 -45
116 -45 21 0 -2 534 -23 556 -7 6 -276 99 -333 115 -16 4 -46 12 -65 18 -175
49 -218 59 -435 101 -111 22 -307 49 -435 61 -119 11 -762 24 -770 15z"/>
<path d="M2285 4154 c-147 -8 -376 -40 -540 -74 -22 -5 -67 -14 -100 -21 -98
-20 -99 -21 -91 -98 20 -198 41 -345 51 -361 8 -12 32 -10 120 10 28 7 68 16
90 21 333 76 870 98 1210 48 186 -27 276 -42 348 -60 122 -30 190 -48 227 -59
14 -4 59 -18 100 -31 100 -30 102 -32 89 -99 -6 -30 -13 -70 -16 -88 -3 -18
-9 -35 -14 -38 -5 -3 -9 -14 -9 -25 0 -30 -78 -259 -121 -356 -10 -24 -19 -46
-19 -50 0 -14 -141 -291 -187 -369 -152 -255 -327 -479 -532 -682 -52 -52 -90
-97 -85 -101 17 -15 193 -131 200 -131 3 0 19 -9 34 -20 41 -30 140 -80 156
-80 20 0 199 190 310 330 138 173 242 329 368 550 30 53 95 183 126 255 12 28
28 63 36 79 8 16 14 33 14 38 0 4 9 27 19 51 11 23 29 71 41 107 12 36 25 74
30 85 34 76 108 375 139 565 38 228 38 228 5 240 -14 6 -49 20 -77 33 -29 13
-90 38 -137 56 -47 18 -94 37 -105 41 -75 32 -323 105 -475 139 -143 32 -228
47 -475 81 -77 11 -608 21 -730 14z"/>
<path d="M445 3878 c-27 -17 -75 -44 -105 -61 -75 -41 -232 -146 -247 -165 -7
-8 -10 -19 -7 -24 3 -4 10 -43 15 -86 9 -76 22 -159 34 -217 3 -16 10 -55 16
-85 6 -30 15 -72 20 -92 30 -123 48 -191 59 -228 4 -14 18 -59 30 -100 12 -41
26 -84 30 -95 4 -11 13 -36 20 -55 7 -19 16 -44 20 -55 5 -11 25 -63 45 -115
178 -460 475 -941 825 -1335 155 -175 538 -529 585 -541 21 -5 221 70 387 146
69 32 97 50 98 63 0 9 -4 17 -9 17 -8 0 -194 136 -256 188 -263 218 -534 505
-703 742 -69 96 -172 250 -172 255 0 4 -13 25 -28 48 -16 23 -32 49 -35 57 -4
8 -20 38 -37 65 -44 75 -128 246 -185 380 -7 17 -20 46 -28 65 -38 86 -126
350 -161 483 -54 204 -99 466 -121 705 -8 84 -13 87 -90 40z"/>
<path d="M4615 3898 c-2 -7 -9 -65 -15 -128 -60 -647 -295 -1300 -670 -1860
-72 -108 -172 -244 -190 -260 -4 -3 -13 -14 -21 -26 -30 -43 -128 -153 -244
-273 -368 -379 -840 -703 -1312 -901 -46 -19 -83 -37 -83 -40 0 -14 248 -162
418 -251 l72 -38 87 45 c426 221 819 514 1153 860 167 173 224 240 367 425 75
97 240 347 313 474 53 92 213 412 239 480 19 46 33 81 60 148 5 12 15 40 22
62 7 22 16 45 19 50 4 6 12 30 19 55 7 25 17 54 21 65 4 11 13 40 20 65 7 25
16 54 20 65 5 11 11 31 14 45 2 14 10 43 16 65 6 22 16 59 21 83 5 23 14 63
19 90 27 120 46 225 60 332 5 41 12 84 15 95 4 15 -3 26 -32 45 -21 14 -42 28
-48 33 -16 12 -137 88 -175 110 -19 11 -48 28 -65 37 -119 68 -114 66 -120 48z"/>
<path d="M2485 3424 c-16 -2 -95 -9 -175 -14 -179 -13 -221 -18 -287 -30 -29
-6 -79 -15 -110 -21 -32 -6 -76 -15 -98 -21 -53 -13 -117 -29 -133 -34 -9 -2
-10 -9 -3 -21 5 -10 16 -40 24 -68 47 -158 187 -456 298 -633 78 -126 202
-293 295 -399 77 -88 240 -250 266 -264 26 -14 213 174 394 396 41 50 185 262
219 322 24 41 11 58 -53 67 -26 4 -72 11 -102 16 -30 5 -100 14 -155 20 -55 6
-108 13 -117 16 -20 6 -38 -11 -97 -94 -24 -34 -49 -62 -56 -62 -6 0 -25 17
-42 38 -33 41 -173 249 -173 256 0 3 -13 28 -30 56 -16 28 -30 60 -30 71 0 20
3 21 278 15 291 -5 392 -15 582 -54 124 -26 153 -32 155 -30 9 10 55 121 55
132 0 7 3 16 7 19 16 17 70 199 59 202 -58 15 -98 25 -136 34 -42 9 -70 14
-212 41 -119 22 -555 53 -623 44z"/>
</g>
</svg>
